<svg width="1665" height="703" viewBox="0 0 1665 703" fill="none" xmlns="http://www.w3.org/2000/svg">
<path fill-rule="evenodd" clip-rule="evenodd" d="M184.72 184.951C129.718 141.076 96.2087 113.554 84.1922 102.384C69.4386 85.8969 64.8278 74.6777 70.3596 68.7266C74.934 63.8056 83.2971 62.7264 95.449 65.489C100.276 66.6264 105.083 67.7645 109.87 68.9034L109.846 68.9219C109.998 68.9493 110.15 68.9774 110.303 69.0064C111.994 69.4087 113.682 69.8112 115.368 70.2138C144.449 78.5076 178.685 110.721 187.088 134.381C184.888 148.815 186.796 158.828 192.813 164.422C198.536 169.741 205.703 172.243 214.315 171.929C222.821 171.729 229.946 168.539 235.691 162.359C238.457 159.383 242.081 149.632 246.563 133.106C251.046 116.58 256.85 104.483 263.978 96.8149C276.531 83.3106 289.899 75.4704 304.082 73.2943C319.033 70.9795 332.517 75.4071 344.534 86.5771C356.665 97.8535 366.51 116.179 374.07 141.552C381.777 167.916 381.535 185.503 373.343 194.315C360.471 208.163 348.154 216.02 336.392 217.887C324.639 219.974 316.475 223.479 311.9 228.4C305.836 234.923 303.236 242.425 304.098 250.907C304.83 258.84 308 265.413 313.608 270.626C323.45 279.775 340.404 279.074 364.47 268.521C362.758 273.228 362.845 278.896 364.729 285.527C367.132 293.854 371.09 300.324 376.602 304.937C384.391 311.455 393.45 313.534 403.778 311.174C412.785 308.932 420.297 304.216 426.313 297.026C434.736 286.96 459.422 253.321 500.371 196.108C541.32 138.894 567.058 103.997 577.587 91.4144C593.284 75.8219 604.247 70.6328 610.479 75.8471C615.631 80.1589 617.145 88.4544 615.019 100.734C614.135 105.613 613.248 110.473 612.361 115.313L612.341 115.29C612.33 115.375 612.319 115.46 612.308 115.546L612.296 115.637L612.28 115.75C612.107 116.694 611.934 117.637 611.76 118.58C611.62 119.344 611.479 120.109 611.338 120.872C604.571 150.346 574.185 186.213 550.995 195.838C536.466 194.392 526.566 196.82 521.293 203.12C516.28 209.112 514.154 216.4 514.917 224.984C515.56 233.468 519.117 240.417 525.587 245.832C528.703 248.439 538.629 251.55 555.367 255.165C572.104 258.781 584.487 263.948 592.516 270.666C606.656 282.498 615.182 295.44 618.094 309.49C621.185 324.3 617.466 337.997 606.937 350.579C596.308 363.281 578.521 374.068 553.575 382.94C527.649 392.009 510.073 392.684 500.846 384.962C486.346 372.829 477.858 360.938 475.381 349.29C472.684 337.661 468.759 329.69 463.607 325.379C456.776 319.663 449.149 317.457 440.724 318.76C432.839 319.904 426.44 323.412 421.527 329.284C412.502 340.068 414.656 358.068 427.988 383.283C428.617 384.459 429.248 385.618 429.881 386.761C425.068 384.938 419.255 385.039 412.441 387.063C404.143 389.567 397.721 393.602 393.175 399.169C386.751 407.036 384.781 416.118 387.264 426.417C389.614 435.397 394.42 442.851 401.681 448.781C411.847 457.083 445.781 481.364 503.481 521.623C561.181 561.883 596.385 587.201 609.093 597.578C624.872 613.087 630.193 623.987 625.053 630.281C620.804 635.485 612.527 637.098 600.223 635.119C595.333 634.293 590.463 633.466 585.613 632.636L585.636 632.616C585.549 632.606 585.461 632.596 585.373 632.585L585.297 632.576L585.174 632.561C583.461 632.268 581.75 631.974 580.042 631.68C550.489 625.267 514.26 595.314 504.358 572.24C505.629 557.695 503.083 547.825 496.719 542.628C490.668 537.687 483.355 535.649 474.781 536.515C466.306 537.259 459.399 540.899 454.063 547.434C451.493 550.581 448.501 560.544 445.087 577.324C441.673 594.103 436.655 606.548 430.033 614.656C418.371 628.937 405.533 637.618 391.519 640.698C376.746 643.966 363.006 640.412 350.299 630.035C337.47 619.559 326.471 601.902 317.3 577.065C307.92 551.249 307.035 533.682 314.645 524.363C326.604 509.72 338.392 501.089 350.01 498.473C361.606 495.637 369.528 491.616 373.778 486.412C379.411 479.514 381.526 471.86 380.122 463.452C378.883 455.581 375.299 449.225 369.369 444.382C358.476 435.487 340.504 437.857 315.451 451.491C312.113 453.327 308.911 455.181 305.845 457.052C308.407 453.55 310.833 450.232 313.123 447.097C317.277 441.61 318.047 434.326 315.435 425.247C313.003 416.928 309.024 410.471 303.496 405.877C295.685 399.385 286.62 397.336 276.3 399.731C267.3 402.003 259.804 406.744 253.812 413.954C245.423 424.048 220.85 457.77 180.093 515.12C139.336 572.47 113.714 607.454 103.228 620.071C87.5835 635.716 76.6372 640.942 70.3886 635.749C65.2215 631.454 63.6802 623.164 65.7648 610.878C66.6328 605.995 67.5027 601.132 68.3744 596.289L68.3942 596.313C68.4034 596.238 68.4128 596.163 68.4224 596.088L68.4356 595.986L68.4532 595.852C68.7612 594.141 69.0694 592.433 69.3779 590.727C76.0466 561.231 106.312 525.262 129.47 515.56C144.004 516.956 153.896 514.496 159.147 508.178C164.14 502.169 166.242 494.874 165.45 486.293C164.779 477.811 161.199 470.874 154.71 465.481C151.586 462.884 141.649 459.806 124.899 456.247C108.15 452.688 95.7494 447.562 87.6983 440.871C73.5188 429.086 64.9495 416.173 61.9903 402.133C58.85 387.333 62.5232 373.624 73.0098 361.007C83.5962 348.269 101.347 337.423 126.263 328.467C152.158 319.311 169.732 318.578 178.985 326.268C193.525 338.353 202.053 350.215 204.569 361.855C207.305 373.475 211.256 381.432 216.424 385.727C223.273 391.419 230.908 393.6 239.329 392.269C247.209 391.098 253.597 387.569 258.49 381.681C267.479 370.866 265.265 352.873 251.848 327.703C251.264 326.62 250.678 325.551 250.091 324.496C254.677 326.398 260.297 326.588 266.951 325.067C275.392 323.101 282.06 319.485 286.953 314.221C293.868 306.782 296.416 297.844 294.598 287.408C292.828 278.296 288.51 270.548 281.643 264.166C272.03 255.23 239.722 228.825 184.72 184.951ZM24.1817 25.8019C48.8569 -0.743059 87.2589 -6.00312 139.388 10.0217C141.647 10.7161 143.931 11.4504 146.241 12.2247C149.323 13.2537 152.067 14.4951 154.473 15.9489C174.658 26.0969 199.79 45.691 216.372 62.1547C217.856 60.2034 219.362 58.406 220.89 56.7624C244.294 31.585 271.074 17.1191 301.231 13.3648C333.039 9.43954 361.303 18.9661 386.023 41.9444C408.797 63.1142 424.815 93.0437 434.078 131.733C437.065 144.063 438.751 155.618 439.136 166.397C440.953 163.952 442.794 161.473 444.66 158.963C490.058 98.1374 518.272 61.1342 529.302 47.9528C543.842 30.5774 562.63 19.2024 585.668 13.828C611.208 7.89842 632.965 12.4543 650.939 27.4955C678.734 50.7541 685.987 88.83 672.7 141.723C672.303 143.781 671.717 145.981 670.965 148.295L670.857 148.682C669.99 151.813 668.893 154.618 667.567 157.096C658.484 177.782 640.226 203.902 624.649 221.319C626.675 222.699 628.548 224.11 630.269 225.55C656.632 247.61 672.473 273.6 677.794 303.52C683.371 335.081 675.33 363.803 653.671 389.686C633.716 413.533 604.662 431.088 566.508 442.354C548.908 447.602 532.789 450.043 518.15 449.676C525.125 454.726 532.393 459.991 539.955 465.471C601.32 510.136 638.659 537.904 651.972 548.775C669.521 563.106 681.12 581.756 686.77 604.728C693.006 630.195 688.711 652.005 673.887 670.158C650.963 698.23 612.977 705.94 559.929 693.288C557.865 692.915 555.659 692.356 553.336 691.631C553.207 691.597 553.077 691.563 552.948 691.529C549.807 690.699 546.989 689.636 544.495 688.34C523.701 679.506 497.365 661.562 479.762 646.195C478.406 648.237 477.018 650.127 475.599 651.865C453.856 678.491 428.058 694.643 398.204 700.322C366.713 706.277 337.896 698.581 311.755 677.234C287.671 657.567 269.768 628.725 258.046 590.709C251.246 568.87 248.83 549.275 250.796 531.924C246.027 538.391 241.071 545.109 235.927 552.078C190.734 613.055 162.644 650.153 151.658 663.371C137.177 680.795 118.426 692.233 95.4067 697.685C69.8872 703.7 48.115 699.217 30.0903 684.236C2.21801 661.07 -5.16319 623.019 7.94664 570.082C8.33711 568.022 8.91565 565.821 9.66012 563.504L9.76624 563.117C10.6228 559.983 11.7101 557.174 13.0283 554.692C22.0415 533.975 40.212 507.795 55.731 490.326C53.7004 488.952 51.8223 487.548 50.0965 486.113C23.6601 464.141 7.73167 438.204 2.31105 408.303C-3.37177 376.761 4.57299 348.012 26.1453 322.056C46.0199 298.143 75.0152 280.49 113.131 269.097C135.738 262.273 155.913 260.099 173.656 262.575C164.573 255.07 154.928 247.095 144.723 238.65C86.3458 190.145 50.8627 160.042 38.2739 148.34C21.6796 132.914 11.299 113.559 7.13209 90.2722C2.54123 64.4584 8.22442 42.9683 24.1817 25.8019ZM373.793 369.127C377.25 362.913 378.46 356.025 377.422 348.464C376.169 338.482 371.697 330.296 364.006 323.904C356.316 317.512 347.449 314.613 337.407 315.206C327.585 315.779 319.528 319.851 313.236 327.421C309.616 331.777 307.241 336.495 306.112 341.577C303.03 347.131 301.742 353.229 302.249 359.872C302.083 361.878 302.071 363.935 302.214 366.043C302.872 375.859 307.013 383.881 314.638 390.107C322.262 396.334 330.95 398.788 340.7 397.471C345.987 396.698 350.766 395.018 355.037 392.428C359.387 390.396 363.241 387.373 366.599 383.359C370.258 378.987 372.656 374.243 373.793 369.127ZM1029.36 193.909C1036.85 200.472 1045.59 203.647 1055.59 203.436C1065.59 203.225 1074.18 199.683 1081.38 192.811C1088.58 185.938 1092.08 177.582 1091.87 167.74C1091.67 157.898 1087.82 149.696 1080.34 143.134C1072.85 136.416 1064.11 133.162 1054.11 133.373C1044.11 133.584 1035.51 137.204 1028.32 144.233C1021.27 151.102 1017.85 159.457 1018.06 169.299C1018.27 179.14 1022.04 187.344 1029.36 193.909ZM1040.48 398.33C1047.27 468.359 1050.84 511.575 1051.19 527.977C1049.63 550.047 1044.78 561.167 1036.66 561.339C1029.94 561.48 1023.34 556.228 1016.87 545.581C1014.32 541.324 1011.79 537.081 1009.28 532.851L1009.31 532.856C1009.22 532.728 1009.14 532.599 1009.05 532.469L1008.55 531.617C1007.83 530.408 1007.11 529.199 1006.39 527.992C992.102 501.342 991.394 454.338 1002.53 431.834C1014.42 423.366 1020.28 415.025 1020.11 406.811C1019.95 399.001 1016.75 392.113 1010.53 386.15C1004.47 380.183 997.216 377.288 988.78 377.466C984.719 377.552 975.195 381.739 960.211 390.026C945.226 398.313 932.501 402.567 922.034 402.788C903.601 403.177 888.666 399.038 877.231 390.372C865.16 381.249 858.952 368.487 858.605 352.084C858.255 335.525 864.557 315.7 877.51 292.609C891.071 268.724 903.865 256.654 915.894 256.4C934.796 256.001 949.011 259.373 958.539 266.517C968.22 273.502 976.419 276.923 983.137 276.781C992.041 276.593 999.237 273.238 1004.73 266.714C1009.91 260.666 1012.42 253.814 1012.26 246.16C1011.97 232.1 998.502 219.96 971.874 209.739C949.976 201.449 930.903 197.476 914.656 197.819C881.539 198.518 852.882 218.034 828.686 256.366C807.359 289.949 797.024 322.284 797.681 353.371C798.394 387.114 811.231 414.036 836.193 434.139C859.881 453.174 888.909 462.329 923.277 461.603C925.52 461.556 927.859 461.385 930.293 461.093C930.018 484.458 933.447 516.141 940.214 537.696C940.845 540.435 941.864 543.269 943.27 546.198L943.444 546.56C944.4 548.798 945.405 550.84 946.46 552.652C971.246 601.23 1001.76 625.137 1037.99 624.372C1061.42 623.877 1080.81 612.996 1096.14 591.73C1109.96 572.528 1116.63 551.601 1116.15 528.95C1115.79 511.766 1112.69 465.336 1106.88 389.661C1102.39 332.868 1098.9 289.572 1096.4 259.775C1095.94 252.908 1091.75 246.901 1083.83 241.755C1076.54 237.064 1069.3 234.794 1062.11 234.946C1051.96 235.16 1043.77 239.553 1037.54 248.124C1032.23 255.738 1029.68 264.231 1029.88 273.604C1030.15 286.726 1033.69 328.302 1040.48 398.33ZM1557.21 533.231C1547.26 533.576 1538.72 537.25 1531.58 544.252C1524.44 551.254 1520.6 559.724 1520.06 569.663C1519.53 579.602 1522.7 588.085 1529.6 595.113C1536.49 602.141 1544.91 605.483 1554.86 605.137C1564.91 604.904 1573.51 601.286 1580.65 594.284C1587.79 587.282 1591.57 578.756 1592 568.705C1592.43 558.876 1589.2 550.447 1582.31 543.419C1575.41 536.391 1567.05 532.995 1557.21 533.231ZM1409.09 391.909C1356.18 345.541 1323.97 316.501 1312.49 304.787C1298.51 287.636 1294.42 276.216 1300.22 270.527C1305.02 265.822 1313.42 265.13 1325.43 268.451C1330.2 269.811 1334.95 271.17 1339.68 272.528L1339.66 272.546C1339.81 272.58 1339.96 272.615 1340.11 272.651L1341.28 272.988L1342.98 273.475L1345.11 274.091C1373.78 283.72 1406.49 317.48 1413.79 341.504C1410.93 355.82 1412.37 365.911 1418.12 371.776C1423.6 377.354 1430.64 380.185 1439.26 380.269C1447.76 380.462 1455.03 377.605 1461.05 371.697C1463.95 368.852 1468.02 359.279 1473.26 342.977C1478.5 326.676 1484.86 314.86 1492.34 307.529C1505.5 294.62 1519.22 287.405 1533.48 285.887C1548.53 284.265 1561.79 289.311 1573.28 301.024C1584.88 312.849 1593.87 331.609 1600.24 357.305C1606.73 383.996 1605.67 401.554 1597.08 409.978C1583.58 423.216 1570.92 430.496 1559.08 431.818C1547.24 433.36 1538.93 436.483 1534.13 441.188C1527.77 447.424 1524.83 454.798 1525.3 463.31C1525.66 471.269 1528.52 477.982 1533.88 483.448C1543.73 493.488 1561.85 493.112 1588.26 482.319C1609.89 473.359 1626.51 463.19 1638.11 451.811C1661.76 428.617 1669.27 394.77 1660.64 350.268C1653.18 311.193 1638.56 280.555 1616.79 258.356C1593.15 234.26 1565.36 223.438 1533.4 225.889C1503.11 228.247 1475.69 241.46 1451.15 265.529C1449.54 267.1 1447.96 268.826 1446.38 270.707C1430.58 253.495 1406.38 232.76 1386.68 221.691C1384.35 220.127 1381.66 218.761 1378.63 217.59L1378.26 217.446C1376.03 216.47 1373.9 215.671 1371.89 215.073C1320.56 196.657 1281.95 200.138 1256.08 225.514C1239.34 241.925 1232.67 263.13 1236.07 289.128C1239.15 312.582 1248.63 332.397 1264.49 348.572C1276.53 360.843 1310.58 392.554 1366.66 443.704C1408.82 482.012 1441.02 511.163 1463.26 531.157C1468.3 535.847 1475.46 537.353 1484.76 535.675C1493.28 534.101 1500.11 530.797 1505.24 525.765C1512.49 518.653 1515.45 509.843 1514.12 499.333C1512.77 490.149 1508.82 482.211 1502.25 475.518C1493.06 466.147 1462.01 438.278 1409.09 391.909Z" fill="#8D4FBE"/>
</svg>
